<?xml version="1.0" encoding="UTF-8" standalone="no"?><!DOCTYPE svg PUBLIC "-//W3C//DTD SVG 1.1//EN" "http://www.w3.org/Graphics/SVG/1.1/DTD/svg11.dtd"><svg width="100%" height="100%" viewBox="0 0 569 463" version="1.1" xmlns="http://www.w3.org/2000/svg" xmlns:xlink="http://www.w3.org/1999/xlink" xml:space="preserve" xmlns:serif="http://www.serif.com/" style="fill-rule:evenodd;clip-rule:evenodd;stroke-linecap:round;stroke-linejoin:round;stroke-miterlimit:1.5;"><rect id="Container" x="0" y="0" width="568.022" height="462.386" style="fill:none;"/><g><path d="M314.608,88.09l182.767,97.111l-0.89,166.494l-182.859,-1.184l0.982,-262.421Z" style="fill:none;"/><clipPath id="_clip1"><path d="M314.608,88.09l182.767,97.111l-0.89,166.494l-182.859,-1.184l0.982,-262.421Z"/></clipPath><g clip-path="url(#_clip1)"><path d="M357.943,171.38l-0.012,146.821" style="fill:none;stroke:#333448;stroke-width:10.42px;"/><path d="M407.162,187.06l0,127.1" style="fill:none;stroke:#333448;stroke-width:10.42px;"/><path d="M456.689,217.678l0.357,89.342" style="fill:none;stroke:#333448;stroke-width:10.42px;"/></g><path d="M314.608,88.09l182.767,97.111l-0.89,166.494l-182.859,-1.184l0.982,-262.421Z" style="fill:none;stroke:#333448;stroke-width:20.83px;"/><rect x="70.647" y="88.591" width="242.836" height="261.334" style="fill:none;"/><clipPath id="_clip2"><rect x="70.647" y="88.591" width="242.836" height="261.334"/></clipPath><g clip-path="url(#_clip2)"><g><path d="M184.726,64.285l1.567,315.577" style="fill:none;stroke:#333448;stroke-width:10.42px;"/><path d="M158.009,160.092l52.377,0.225" style="fill:none;stroke:#333448;stroke-width:10.42px;"/><path d="M158.344,301.285l52.375,0.471" style="fill:none;stroke:#333448;stroke-width:10.42px;"/></g></g><rect x="70.647" y="88.591" width="242.836" height="261.334" style="fill:none;stroke:#333448;stroke-width:22.92px;"/></g></svg>