<?xml version="1.0" encoding="UTF-8" standalone="no"?><!DOCTYPE svg PUBLIC "-//W3C//DTD SVG 1.1//EN" "http://www.w3.org/Graphics/SVG/1.1/DTD/svg11.dtd"><svg width="100%" height="100%" viewBox="0 0 569 463" version="1.1" xmlns="http://www.w3.org/2000/svg" xmlns:xlink="http://www.w3.org/1999/xlink" xml:space="preserve" xmlns:serif="http://www.serif.com/" style="fill-rule:evenodd;clip-rule:evenodd;stroke-linejoin:round;stroke-miterlimit:2;"><rect id="Feuilles" x="0" y="0" width="568.022" height="462.386" style="fill:none;"/><g><path d="M240.497,359.409c-10.797,-50.446 9.088,-75.123 44.04,-87.145c23.96,-8.241 53.858,-5.512 80.549,-4.892c-8.435,12.921 -12.798,39.246 -15.017,72.623c-1.668,25.084 -45.549,43.847 -94.665,29.092c-4.337,-1.303 -12.058,-1.944 -14.907,-9.678Z" style="fill:#7c9d74;"/><clipPath id="_clip1"><path d="M240.497,359.409c-10.797,-50.446 9.088,-75.123 44.04,-87.145c23.96,-8.241 53.858,-5.512 80.549,-4.892c-8.435,12.921 -12.798,39.246 -15.017,72.623c-1.668,25.084 -45.549,43.847 -94.665,29.092c-4.337,-1.303 -12.058,-1.944 -14.907,-9.678Z"/></clipPath><g clip-path="url(#_clip1)"><path id="_-Courbe-" serif:id="(Courbe)" d="M310.718,304.068c-23.052,9.858 -54.196,36.414 -78.191,65.304l12.527,10.937c24.28,-33.275 45.391,-56.134 65.664,-76.241Z" style="fill:#fff;"/></g><path d="M225.934,353.363c-9.085,-52.751 16.421,-80.721 58.819,-96.589c-9.614,-9.995 -37.455,-8.997 -55.094,-5.567c-12.204,2.373 -25.636,4.483 -39.362,3.83c1.729,40.268 1.073,78.463 35.637,98.326Z" style="fill:#7c9d74;"/><clipPath id="_clip2"><path d="M225.934,353.363c-9.085,-52.751 16.421,-80.721 58.819,-96.589c-9.614,-9.995 -37.455,-8.997 -55.094,-5.567c-12.204,2.373 -25.636,4.483 -39.362,3.83c1.729,40.268 1.073,78.463 35.637,98.326Z"/></clipPath><g clip-path="url(#_clip2)"><path d="M206.288,269.082c12.812,9.889 24.629,19.993 33.335,30.767l9.887,-12.932c-13.366,-11.842 -27.999,-16.51 -43.222,-17.835Z" style="fill:#fff;"/></g></g></svg>