<?xml version="1.0" encoding="UTF-8" standalone="no"?><!DOCTYPE svg PUBLIC "-//W3C//DTD SVG 1.1//EN" "http://www.w3.org/Graphics/SVG/1.1/DTD/svg11.dtd"><svg width="100%" height="100%" viewBox="0 0 1068 463" version="1.1" xmlns="http://www.w3.org/2000/svg" xmlns:xlink="http://www.w3.org/1999/xlink" xml:space="preserve" xmlns:serif="http://www.serif.com/" style="fill-rule:evenodd;clip-rule:evenodd;stroke-linejoin:round;stroke-miterlimit:2;"><rect id="Hommade" x="0" y="0" width="1067.09" height="462.386" style="fill:none;"/><g><path d="M59.717,160.04l0,144.73l29,0l0,-58l48.393,0l0,58l29,0l0,-144.73l-29,0l0,57.91l-48.393,0l0,-57.91l-29,0Z" style="fill:#7c9d74;fill-rule:nonzero;"/><path d="M252.122,158.873c-20.172,0 -37.47,7.212 -51.895,21.638c-14.365,14.484 -21.548,31.813 -21.548,51.984c0,20.231 7.183,37.529 21.548,51.894c14.306,14.186 31.604,21.309 51.895,21.368c20.231,0 37.529,-7.122 51.894,-21.368c14.425,-14.305 21.638,-31.603 21.638,-51.894c0,-20.231 -7.213,-37.559 -21.638,-51.984c-14.425,-14.426 -31.723,-21.638 -51.894,-21.638Zm0,29.359c12.09,0 22.445,4.309 31.064,12.929c8.679,8.679 13.019,19.064 13.019,31.154c0,12.211 -4.34,22.596 -13.019,31.155c-8.679,8.559 -19.034,12.839 -31.064,12.839c-12.211,0 -22.596,-4.28 -31.155,-12.839c-8.619,-8.619 -12.929,-19.004 -12.929,-31.155c0,-12.031 4.31,-22.415 12.929,-31.154c8.499,-8.619 18.884,-12.929 31.155,-12.929Z" style="fill:#7c9d74;fill-rule:nonzero;"/><path d="M338.044,156.628l0,148.142l29.089,0l0,-59.975l41.839,57.641l41.749,-57.641l0,59.975l29.09,0l0,-148.142l-70.839,97.235l-70.928,-97.235Z" style="fill:#7c9d74;fill-rule:nonzero;"/><path d="M497.767,156.628l0,148.142l29.09,0l0,-59.975l41.839,57.641l41.748,-57.641l0,59.975l29.09,0l0,-148.142l-70.838,97.235l-70.929,-97.235Z" style="fill:#333448;fill-rule:nonzero;"/><path d="M652.104,304.77l31.424,0l9.786,-21.997l49.56,0l9.786,21.997l31.514,0l-66.08,-147.693l-65.99,147.693Zm52.702,-47.675l13.378,-30.616l13.198,30.616l-26.576,0Z" style="fill:#333448;fill-rule:nonzero;"/><path d="M835.26,160.13l-38.516,0l0,144.64l38.516,0c21.01,0 38.637,-7.063 52.882,-21.189c12.929,-12.869 19.394,-29.883 19.394,-51.041c0,-21.159 -6.465,-38.233 -19.394,-51.221c-12.35,-12.247 -30.147,-21.279 -52.882,-21.279l0,0.09Zm43.276,72.185c0,26.134 -17.005,43.455 -43.096,43.455l-9.697,0l0,-86.91l9.428,0c26.068,0 43.365,17.558 43.365,43.455Z" style="fill:#333448;fill-rule:nonzero;"/><path d="M920.105,159.681l0,145.268l87.269,0l0,-28.91l-58.179,0l0,-29.179l43.634,0l0,-29l-43.634,0l0,-29.179l58.179,0l0,-29l-87.269,0Z" style="fill:#333448;fill-rule:nonzero;"/></g></svg>