<?xml version="1.0" encoding="UTF-8" standalone="no"?><!DOCTYPE svg PUBLIC "-//W3C//DTD SVG 1.1//EN" "http://www.w3.org/Graphics/SVG/1.1/DTD/svg11.dtd"><svg width="100%" height="100%" viewBox="0 0 2069 865" version="1.1" xmlns="http://www.w3.org/2000/svg" xmlns:xlink="http://www.w3.org/1999/xlink" xml:space="preserve" xmlns:serif="http://www.serif.com/" style="fill-rule:evenodd;clip-rule:evenodd;stroke-linecap:round;stroke-linejoin:round;stroke-miterlimit:1.5;"><rect id="Logo-complet" serif:id="Logo complet" x="0" y="0" width="2068.23" height="864.327" style="fill:none;"/><g><path d="M794.29,373.539l0,144.73l29,0l0,-58l48.393,0l0,58l29,0l0,-144.73l-29,0l0,57.91l-48.393,0l0,-57.91l-29,0Z" style="fill:#7c9d74;fill-rule:nonzero;"/><path d="M986.694,372.372c-20.171,0 -37.469,7.213 -51.894,21.638c-14.365,14.485 -21.548,31.813 -21.548,51.984c0,20.231 7.183,37.529 21.548,51.894c14.305,14.186 31.603,21.309 51.894,21.369c20.231,0 37.53,-7.123 51.895,-21.369c14.425,-14.305 21.637,-31.603 21.637,-51.894c0,-20.231 -7.212,-37.559 -21.637,-51.984c-14.425,-14.425 -31.723,-21.638 -51.895,-21.638Zm0,29.359c12.091,0 22.446,4.31 31.065,12.929c8.679,8.679 13.019,19.064 13.019,31.155c0,12.21 -4.34,22.595 -13.019,31.154c-8.679,8.559 -19.034,12.839 -31.065,12.839c-12.21,0 -22.595,-4.28 -31.154,-12.839c-8.619,-8.619 -12.929,-19.004 -12.929,-31.154c0,-12.031 4.31,-22.416 12.929,-31.155c8.499,-8.619 18.884,-12.929 31.154,-12.929Z" style="fill:#7c9d74;fill-rule:nonzero;"/><path d="M1072.62,370.128l0,148.141l29.09,0l0,-59.975l41.839,57.641l41.749,-57.641l0,59.975l29.089,0l0,-148.141l-70.838,97.234l-70.929,-97.234Z" style="fill:#7c9d74;fill-rule:nonzero;"/><path d="M1232.34,370.128l0,148.141l29.09,0l0,-59.975l41.838,57.641l41.749,-57.641l0,59.975l29.09,0l0,-148.141l-70.839,97.234l-70.928,-97.234Z" style="fill:#333448;fill-rule:nonzero;"/><path d="M1386.68,518.269l31.424,0l9.787,-21.997l49.56,0l9.786,21.997l31.514,0l-66.08,-147.692l-65.991,147.692Zm52.703,-47.675l13.378,-30.615l13.198,30.615l-26.576,0Z" style="fill:#333448;fill-rule:nonzero;"/><path d="M1569.83,373.629l-38.517,0l0,144.64l38.517,0c21.009,0 38.637,-7.063 52.882,-21.189c12.929,-12.868 19.393,-29.882 19.393,-51.041c0,-21.159 -6.464,-38.233 -19.393,-51.221c-12.35,-12.247 -30.148,-21.279 -52.882,-21.279l0,0.09Zm43.275,72.185c0,26.134 -17.004,43.455 -43.095,43.455l-9.697,0l0,-86.91l9.427,0c26.068,0 43.365,17.558 43.365,43.455Z" style="fill:#333448;fill-rule:nonzero;"/><path d="M1654.68,373.18l0,145.269l87.269,0l0,-28.91l-58.18,0l0,-29.18l43.635,0l0,-29l-43.635,0l0,-29.179l58.18,0l0,-29l-87.269,0Z" style="fill:#333448;fill-rule:nonzero;"/></g><g><path d="M498.184,301.589l182.768,97.111l-0.891,166.495l-182.859,-1.184l0.982,-262.422Z" style="fill:none;"/><clipPath id="_clip1"><path d="M498.184,301.589l182.768,97.111l-0.891,166.495l-182.859,-1.184l0.982,-262.422Z"/></clipPath><g clip-path="url(#_clip1)"><path d="M541.519,384.88l-0.011,146.82" style="fill:none;stroke:#333448;stroke-width:10.42px;"/><path d="M590.738,400.559l0,127.1" style="fill:none;stroke:#333448;stroke-width:10.42px;"/><path d="M640.266,431.177l0.357,89.342" style="fill:none;stroke:#333448;stroke-width:10.42px;"/></g><path d="M498.184,301.589l182.768,97.111l-0.891,166.495l-182.859,-1.184l0.982,-262.422Z" style="fill:none;stroke:#333448;stroke-width:20.83px;"/><rect x="254.223" y="302.09" width="242.836" height="261.334" style="fill:none;"/><clipPath id="_clip2"><rect x="254.223" y="302.09" width="242.836" height="261.334"/></clipPath><g clip-path="url(#_clip2)"><g><path d="M368.302,277.784l1.567,315.577" style="fill:none;stroke:#333448;stroke-width:10.42px;"/><path d="M341.586,373.591l52.376,0.226" style="fill:none;stroke:#333448;stroke-width:10.42px;"/><path d="M341.92,514.784l52.375,0.471" style="fill:none;stroke:#333448;stroke-width:10.42px;"/></g></g><rect x="254.223" y="302.09" width="242.836" height="261.334" style="fill:none;stroke:#333448;stroke-width:22.92px;"/><g><path d="M424.073,572.908c-10.796,-50.446 9.089,-75.123 44.041,-87.145c23.959,-8.241 53.858,-5.512 80.549,-4.892c-8.436,12.921 -12.798,39.246 -15.017,72.623c-1.668,25.084 -45.549,43.847 -94.665,29.092c-4.338,-1.303 -12.059,-1.944 -14.908,-9.678Z" style="fill:#7c9d74;"/><clipPath id="_clip3"><path d="M424.073,572.908c-10.796,-50.446 9.089,-75.123 44.041,-87.145c23.959,-8.241 53.858,-5.512 80.549,-4.892c-8.436,12.921 -12.798,39.246 -15.017,72.623c-1.668,25.084 -45.549,43.847 -94.665,29.092c-4.338,-1.303 -12.059,-1.944 -14.908,-9.678Z"/></clipPath><g clip-path="url(#_clip3)"><path id="_-Courbe-" serif:id="(Courbe)" d="M494.294,517.567c-23.051,9.858 -54.196,36.414 -78.191,65.304l12.527,10.938c24.281,-33.275 45.391,-56.135 65.664,-76.242Z" style="fill:#fff;"/></g><path d="M409.51,566.862c-9.084,-52.751 16.422,-80.72 58.82,-96.588c-9.615,-9.996 -37.456,-8.997 -55.094,-5.568c-12.204,2.373 -25.637,4.483 -39.363,3.83c1.73,40.269 1.073,78.463 35.637,98.326Z" style="fill:#7c9d74;"/><clipPath id="_clip4"><path d="M409.51,566.862c-9.084,-52.751 16.422,-80.72 58.82,-96.588c-9.615,-9.996 -37.456,-8.997 -55.094,-5.568c-12.204,2.373 -25.637,4.483 -39.363,3.83c1.73,40.269 1.073,78.463 35.637,98.326Z"/></clipPath><g clip-path="url(#_clip4)"><path d="M389.865,482.582c12.811,9.889 24.628,19.992 33.335,30.767l9.886,-12.933c-13.365,-11.842 -27.998,-16.509 -43.221,-17.834Z" style="fill:#fff;"/></g></g></g></svg>